<?xml version="1.0" encoding="UTF-8" standalone="no"?>
<svg
   id="Layer_1"
   data-name="Layer 1"
   viewBox="0 0 36 36"
   version="1.1"
   sodipodi:docname="icon.svg"
   inkscape:version="1.1 (c68e22c387, 2021-05-23)"
   inkscape:export-filename="C:\Users\turbu\Documents\GitHub\CodeyzerPassPlugin\resources\splash.png"
   inkscape:export-xdpi="9065.8428"
   inkscape:export-ydpi="9065.8428"
   xmlns:inkscape="http://www.inkscape.org/namespaces/inkscape"
   xmlns:sodipodi="http://sodipodi.sourceforge.net/DTD/sodipodi-0.dtd"
   xmlns="http://www.w3.org/2000/svg"
   xmlns:svg="http://www.w3.org/2000/svg"
   xmlns:rdf="http://www.w3.org/1999/02/22-rdf-syntax-ns#"
   xmlns:cc="http://creativecommons.org/ns#"
   xmlns:dc="http://purl.org/dc/elements/1.1/">
  <metadata
     id="metadata21">
    <rdf:RDF>
      <cc:Work
         rdf:about="">
        <dc:format>image/svg+xml</dc:format>
        <dc:type
           rdf:resource="http://purl.org/dc/dcmitype/StillImage" />
        <dc:title>Artboard 1</dc:title>
      </cc:Work>
    </rdf:RDF>
  </metadata>
  <sodipodi:namedview
     pagecolor="#ffffff"
     bordercolor="#666666"
     borderopacity="1"
     objecttolerance="10"
     gridtolerance="10"
     guidetolerance="10"
     inkscape:pageopacity="0"
     inkscape:pageshadow="2"
     inkscape:window-width="1920"
     inkscape:window-height="1017"
     id="namedview19"
     showgrid="false"
     inkscape:zoom="18.541911"
     inkscape:cx="4.5842093"
     inkscape:cy="18.687394"
     inkscape:window-x="1912"
     inkscape:window-y="-8"
     inkscape:window-maximized="1"
     inkscape:current-layer="Layer_1"
     inkscape:pagecheckerboard="0" />
  <defs
     id="defs4">
    <style
       id="style2">.cls-1{fill:#ff7f7f;}.cls-2{fill:#7f7fff;}.cls-3{fill:#fff;}</style>
  </defs>
  <title
     id="title6">Artboard 1</title>
  <path
     style="fill:#ff7f2a;fill-opacity:1"
     d="M 5.4003906 3.140625 C 4.2923906 3.140625 3.4003906 4.032625 3.4003906 5.140625 L 3.4003906 30.070312 C 3.4003906 31.178313 4.2923906 32.070312 5.4003906 32.070312 L 30.330078 32.070312 C 31.438078 32.070312 32.330078 31.178313 32.330078 30.070312 L 32.330078 5.140625 C 32.330078 4.032625 31.438078 3.140625 30.330078 3.140625 L 5.4003906 3.140625 z M 28.5 6.140625 L 29.339844 6.9804688 L 27.800781 12.720703 L 26.820312 11.740234 L 27.949219 7.5195312 L 23.730469 8.6503906 L 22.759766 7.6796875 L 28.5 6.140625 z M 12.570312 13.160156 C 14.800313 13.160156 16.450391 14.930859 17.900391 16.380859 C 19.430391 14.840859 21.030937 13.160156 23.460938 13.160156 A 4.21 4.21 0 0 1 27.789062 17.609375 A 4.48 4.48 0 0 1 23.220703 22.060547 C 21.000703 22.060547 19.309141 20.289844 17.869141 18.839844 C 16.329141 20.379844 14.740781 22.060547 12.300781 22.060547 A 4.23 4.23 0 0 1 8 17.609375 A 4.49 4.49 0 0 1 12.570312 13.160156 z M 12.509766 15 A 2.65 2.65 0 0 0 9.8691406 17.650391 A 2.52 2.52 0 0 0 12.419922 20.300781 C 14.139922 20.260781 15.520156 18.779375 16.660156 17.609375 C 15.490156 16.529375 14.259766 15 12.509766 15 z M 23.310547 15 C 21.600547 15 20.210312 16.480391 19.070312 17.650391 C 20.240313 18.730391 21.480703 20.300781 23.220703 20.300781 A 2.66 2.66 0 0 0 25.869141 17.609375 A 2.53 2.53 0 0 0 23.310547 15 z M 7.8300781 22.970703 L 8.7304688 23.869141 L 7.6796875 27.800781 L 11.599609 26.740234 L 12.509766 27.650391 L 7.1796875 29.070312 L 6.4003906 28.300781 L 7.8300781 22.970703 z "
     id="rect8" />
  <line
     class="cls-1"
     x1="4.08"
     y1="28.16"
     x2="4.08"
     y2="28.16"
     id="line12" />
</svg>
