<?xml version="1.0" encoding="UTF-8" standalone="no"?>
<svg
   xmlns:dc="http://purl.org/dc/elements/1.1/"
   xmlns:cc="http://creativecommons.org/ns#"
   xmlns:rdf="http://www.w3.org/1999/02/22-rdf-syntax-ns#"
   xmlns:svg="http://www.w3.org/2000/svg"
   xmlns="http://www.w3.org/2000/svg"
   xmlns:sodipodi="http://sodipodi.sourceforge.net/DTD/sodipodi-0.dtd"
   xmlns:inkscape="http://www.inkscape.org/namespaces/inkscape"
   inkscape:version="1.0 (4035a4fb49, 2020-05-01)"
   inkscape:export-ydpi="3.9336202"
   inkscape:export-xdpi="3.9336202"
   inkscape:export-filename="C:\Users\turbu\CodeyzerPass\images\kullanici_icon.png"
   sodipodi:docname="kullanici_icon.svg"
   xml:space="preserve"
   style="enable-background:new 0 0 488.1 488.1;"
   viewBox="0 0 488.1 488.1"
   y="0px"
   x="0px"
   id="Capa_1"
   version="1.1"><metadata
   id="metadata49"><rdf:RDF><cc:Work
       rdf:about=""><dc:format>image/svg+xml</dc:format><dc:type
         rdf:resource="http://purl.org/dc/dcmitype/StillImage" /></cc:Work></rdf:RDF></metadata><defs
   id="defs47" /><sodipodi:namedview
   inkscape:current-layer="Capa_1"
   inkscape:window-maximized="1"
   inkscape:window-y="-8"
   inkscape:window-x="1912"
   inkscape:cy="244.05"
   inkscape:cx="244.05"
   inkscape:zoom="1.7783241"
   showgrid="false"
   id="namedview45"
   inkscape:window-height="1017"
   inkscape:window-width="1920"
   inkscape:pageshadow="2"
   inkscape:pageopacity="0"
   guidetolerance="10"
   gridtolerance="10"
   objecttolerance="10"
   borderopacity="1"
   bordercolor="#666666"
   pagecolor="#ffffff" />
<g
   style="fill:#ff7f2a;fill-opacity:1"
   id="g12">
	<g
   style="fill:#ff7f2a;fill-opacity:1"
   id="g10">
		<g
   style="fill:#ff7f2a;fill-opacity:1"
   id="g4">
			<path
   style="fill:#ff7f2a;fill-opacity:1"
   id="path2"
   d="M476.4,325.9c-40.9-33.6-85-55.9-93.9-60.3c-1-0.5-1.6-1.5-1.6-2.6v-63.7c8-5.3,13.3-14.4,13.3-24.8v-66     c0-32.8-26.6-59.5-59.5-59.5h-7.1h-7.1c-32.8,0-59.5,26.6-59.5,59.5v66c0,10.3,5.3,19.4,13.3,24.8V263c0,1.1-0.6,2.2-1.6,2.6     c-4.6,2.2-18.3,9.1-36,19.8v8.7c18.4,9.8,53.9,30,87.2,57.4c12.7,10.5,20,25.9,20,42.5v1.9h144.2v-45.2     C488,341,483.8,331.9,476.4,325.9z" />
		</g>
		<g
   style="fill:#ff7f2a;fill-opacity:1"
   id="g8">
			<path
   style="fill:#ff7f2a;fill-opacity:1"
   id="path6"
   d="M309.2,369.2c-40.9-33.6-85-55.9-93.9-60.3c-1-0.5-1.6-1.5-1.6-2.6v-63.7c8-5.3,13.3-14.4,13.3-24.8v-66     c0-32.8-26.6-59.5-59.5-59.5h-7.1h-7.1c-32.8,0-59.5,26.6-59.5,59.5v66c0,10.3,5.3,19.4,13.3,24.8v63.7c0,1.1-0.6,2.2-1.6,2.6     c-9,4.4-53.1,26.7-93.9,60.3C4.2,375.3,0,384.4,0,393.9v45.2h160.5H321v-45.2C320.8,384.4,316.6,375.3,309.2,369.2z" />
		</g>
	</g>
</g>
<g
   id="g14">
</g>
<g
   id="g16">
</g>
<g
   id="g18">
</g>
<g
   id="g20">
</g>
<g
   id="g22">
</g>
<g
   id="g24">
</g>
<g
   id="g26">
</g>
<g
   id="g28">
</g>
<g
   id="g30">
</g>
<g
   id="g32">
</g>
<g
   id="g34">
</g>
<g
   id="g36">
</g>
<g
   id="g38">
</g>
<g
   id="g40">
</g>
<g
   id="g42">
</g>
</svg>
