<?xml version="1.0" encoding="UTF-8" standalone="no"?>
<svg
   width="16px"
   height="16px"
   viewBox="0 0 16 16"
   fill="currentColor"
   class="bi bi-signpost-fill"
   version="1.1"
   id="svg4"
   sodipodi:docname="rehber_icon.svg"
   inkscape:export-filename="C:\Users\turbu\Documents\GitHub\CodeyzerPassPlugin\images\rehber_icon.png"
   inkscape:export-xdpi="240.85617"
   inkscape:export-ydpi="240.85617"
   inkscape:version="1.1 (c68e22c387, 2021-05-23)"
   xmlns:inkscape="http://www.inkscape.org/namespaces/inkscape"
   xmlns:sodipodi="http://sodipodi.sourceforge.net/DTD/sodipodi-0.dtd"
   xmlns="http://www.w3.org/2000/svg"
   xmlns:svg="http://www.w3.org/2000/svg">
  <defs
     id="defs8" />
  <sodipodi:namedview
     id="namedview6"
     pagecolor="#505050"
     bordercolor="#eeeeee"
     borderopacity="1"
     inkscape:pageshadow="0"
     inkscape:pageopacity="0"
     inkscape:pagecheckerboard="0"
     showgrid="false"
     inkscape:zoom="51.5"
     inkscape:cx="8"
     inkscape:cy="7.9902913"
     inkscape:window-width="1920"
     inkscape:window-height="1009"
     inkscape:window-x="1912"
     inkscape:window-y="-8"
     inkscape:window-maximized="1"
     inkscape:current-layer="svg4" />
  <path
     d="M7.293.707A1 1 0 0 0 7 1.414V4H2a1 1 0 0 0-1 1v4a1 1 0 0 0 1 1h5v6h2v-6h3.532a1 1 0 0 0 .768-.36l1.933-2.32a.5.5 0 0 0 0-.64L13.3 4.36a1 1 0 0 0-.768-.36H9V1.414A1 1 0 0 0 7.293.707z"
     id="path2"
     style="fill:#ff7f00;fill-opacity:1" />
</svg>
