<?xml version="1.0" encoding="UTF-8" standalone="no"?>
<svg
   inkscape:version="1.1 (c68e22c387, 2021-05-23)"
   inkscape:export-ydpi="11.636364"
   inkscape:export-xdpi="11.636364"
   inkscape:export-filename="C:\Users\turbu\Documents\GitHub\CodeyzerPassPlugin\images\sil_icon.png"
   sodipodi:docname="sil_icon.svg"
   xml:space="preserve"
   style="enable-background:new 0 0 297 297;"
   viewBox="0 0 297 297"
   y="0px"
   x="0px"
   id="Layer_1"
   version="1.1"
   xmlns:inkscape="http://www.inkscape.org/namespaces/inkscape"
   xmlns:sodipodi="http://sodipodi.sourceforge.net/DTD/sodipodi-0.dtd"
   xmlns="http://www.w3.org/2000/svg"
   xmlns:svg="http://www.w3.org/2000/svg"
   xmlns:rdf="http://www.w3.org/1999/02/22-rdf-syntax-ns#"
   xmlns:cc="http://creativecommons.org/ns#"
   xmlns:dc="http://purl.org/dc/elements/1.1/"><metadata
   id="metadata47"><rdf:RDF><cc:Work
       rdf:about=""><dc:format>image/svg+xml</dc:format><dc:type
         rdf:resource="http://purl.org/dc/dcmitype/StillImage" /></cc:Work></rdf:RDF></metadata><defs
   id="defs45" /><sodipodi:namedview
   inkscape:current-layer="Layer_1"
   inkscape:window-maximized="1"
   inkscape:window-y="-8"
   inkscape:window-x="1912"
   inkscape:cy="148.32892"
   inkscape:cx="148.5"
   inkscape:zoom="2.9225589"
   showgrid="false"
   id="namedview43"
   inkscape:window-height="1009"
   inkscape:window-width="1920"
   inkscape:pageshadow="2"
   inkscape:pageopacity="0"
   guidetolerance="10"
   gridtolerance="10"
   objecttolerance="10"
   borderopacity="1"
   bordercolor="#666666"
   pagecolor="#ffffff"
   inkscape:pagecheckerboard="0" />
<g
   style="fill:#ff7f2a;fill-opacity:1"
   id="g10">
	<g
   style="fill:#ff7f2a;fill-opacity:1"
   id="g8">
		<g
   style="fill:#ff7f2a;fill-opacity:1"
   id="g6">
			<path
   style="fill:#ff7f2a;fill-opacity:1"
   id="path2"
   d="M229.554,145.738l4.264-51.168h7.462c5.646,0,10.224-4.578,10.224-10.224V65.688c0-17.596-14.316-31.912-31.912-31.912     h-35.564v-4.723C184.028,13.032,170.994,0,154.975,0h-29.82c-16.02,0-29.052,13.032-29.052,29.052v4.723H60.539     c-17.596,0-31.912,14.316-31.912,31.912v18.658c0,5.646,4.578,10.224,10.224,10.224h7.462L60.205,261.3     c1.668,20.019,18.711,35.7,38.799,35.7h82.119c19.849,0,36.715-15.313,38.723-34.991c27.664-5.705,48.527-30.251,48.527-59.579     C268.374,176.649,252.245,154.579,229.554,145.738z M116.551,29.052c0-4.744,3.86-8.604,8.604-8.604h29.82     c4.745,0,8.605,3.86,8.605,8.604v4.723h-47.029V29.052z M49.073,74.123v-8.435c0-6.322,5.143-11.465,11.465-11.465h159.053     c6.322,0,11.465,5.143,11.465,11.465v8.435H49.073z M181.124,276.552H99.005c-9.538,0-17.63-7.445-18.422-16.95L66.83,94.57     h146.469l-3.923,47.076c-0.611-0.018-1.22-0.047-1.835-0.047c-33.543,0-60.831,27.289-60.831,60.831     c0,30.647,22.785,56.06,52.303,60.221C196.942,270.65,189.614,276.552,181.124,276.552z M207.541,242.814     c-22.268,0-40.384-18.116-40.384-40.384s18.116-40.384,40.384-40.384s40.384,18.116,40.384,40.384     S229.809,242.814,207.541,242.814z" />
			<path
   style="fill:#ff7f2a;fill-opacity:1"
   id="path4"
   d="M222.002,202.431l9.64-9.64c3.991-3.993,3.991-10.467-0.002-14.459c-3.994-3.992-10.465-3.992-14.459,0l-9.64,9.64     l-9.64-9.64c-3.994-3.992-10.465-3.992-14.459,0c-3.993,3.993-3.993,10.466,0,14.459l9.64,9.64l-9.64,9.64     c-3.993,3.993-3.993,10.466,0,14.459c1.997,1.996,4.613,2.994,7.23,2.994s5.233-0.998,7.23-2.994l9.64-9.64l9.64,9.64     c1.997,1.996,4.613,2.994,7.23,2.994c2.617,0,5.233-0.998,7.23-2.994c3.993-3.993,3.993-10.466,0-14.459L222.002,202.431z" />
		</g>
	</g>
</g>
<g
   id="g12">
</g>
<g
   id="g14">
</g>
<g
   id="g16">
</g>
<g
   id="g18">
</g>
<g
   id="g20">
</g>
<g
   id="g22">
</g>
<g
   id="g24">
</g>
<g
   id="g26">
</g>
<g
   id="g28">
</g>
<g
   id="g30">
</g>
<g
   id="g32">
</g>
<g
   id="g34">
</g>
<g
   id="g36">
</g>
<g
   id="g38">
</g>
<g
   id="g40">
</g>
</svg>
