<?xml version="1.0" encoding="UTF-8" standalone="no"?>
<svg
   xmlns:dc="http://purl.org/dc/elements/1.1/"
   xmlns:cc="http://creativecommons.org/ns#"
   xmlns:rdf="http://www.w3.org/1999/02/22-rdf-syntax-ns#"
   xmlns:svg="http://www.w3.org/2000/svg"
   xmlns="http://www.w3.org/2000/svg"
   xmlns:sodipodi="http://sodipodi.sourceforge.net/DTD/sodipodi-0.dtd"
   xmlns:inkscape="http://www.inkscape.org/namespaces/inkscape"
   inkscape:version="1.0 (4035a4fb49, 2020-05-01)"
   inkscape:export-ydpi="3.1875"
   inkscape:export-xdpi="3.1875"
   inkscape:export-filename="C:\Users\turbu\CodeyzerPass\images\website_icon.png"
   sodipodi:docname="website_icon.svg"
   xml:space="preserve"
   style="enable-background:new 0 0 512 512;"
   viewBox="0 0 512 512"
   y="0px"
   x="0px"
   id="Layer_1"
   version="1.1"><metadata
   id="metadata49"><rdf:RDF><cc:Work
       rdf:about=""><dc:format>image/svg+xml</dc:format><dc:type
         rdf:resource="http://purl.org/dc/dcmitype/StillImage" /></cc:Work></rdf:RDF></metadata><defs
   id="defs47" /><sodipodi:namedview
   inkscape:current-layer="Layer_1"
   inkscape:window-maximized="1"
   inkscape:window-y="-8"
   inkscape:window-x="1912"
   inkscape:cy="256"
   inkscape:cx="256"
   inkscape:zoom="1.6953125"
   showgrid="false"
   id="namedview45"
   inkscape:window-height="1017"
   inkscape:window-width="1920"
   inkscape:pageshadow="2"
   inkscape:pageopacity="0"
   guidetolerance="10"
   gridtolerance="10"
   objecttolerance="10"
   borderopacity="1"
   bordercolor="#666666"
   pagecolor="#ffffff" />
<g
   id="g6">
	<g
   id="g4">
		<path
   style="fill:#ff7f2a;fill-opacity:1"
   id="path2"
   d="M0,147.2v307.2c0,21.207,17.193,38.4,38.4,38.4h435.2c21.207,0,38.4-17.193,38.4-38.4V147.2H0z M64,198.4h179.2v38.4H64    V198.4z M243.2,441.6H64v-38.4h179.2V441.6z M435.2,373.334H153.6v-38.4h281.6V373.334z M435.2,305.066H153.6v-38.4h281.6V305.066    z" />
	</g>
</g>
<g
   style="fill:#ff7f2a;fill-opacity:1"
   id="g12">
	<g
   style="fill:#ff7f2a;fill-opacity:1"
   id="g10">
		<path
   style="fill:#ff7f2a;fill-opacity:1"
   id="path8"
   d="M473.6,19.2H38.4C17.193,19.2,0,36.393,0,57.6v51.2h512V57.6C512,36.393,494.807,19.2,473.6,19.2z M64,89.6    c-14.139,0-25.6-11.461-25.6-25.6S49.861,38.4,64,38.4S89.6,49.861,89.6,64S78.139,89.6,64,89.6z M473.6,83.2H256V44.8h217.6V83.2    z" />
	</g>
</g>
<g
   id="g14">
</g>
<g
   id="g16">
</g>
<g
   id="g18">
</g>
<g
   id="g20">
</g>
<g
   id="g22">
</g>
<g
   id="g24">
</g>
<g
   id="g26">
</g>
<g
   id="g28">
</g>
<g
   id="g30">
</g>
<g
   id="g32">
</g>
<g
   id="g34">
</g>
<g
   id="g36">
</g>
<g
   id="g38">
</g>
<g
   id="g40">
</g>
<g
   id="g42">
</g>
</svg>
